<svg xmlns="http://www.w3.org/2000/svg" width="880.349" height="407.998" viewBox="0 0 880.349 407.998"><g transform="translate(-465 -214.625)"><g transform="translate(198.842 -143.068)"><path d="M666.907,666.039a21.283,21.283,0,0,1,0-42.566H983.042A18.505,18.505,0,0,0,966.8,613.82H338.413a30.936,30.936,0,0,0,0,61.872H966.8a18.506,18.506,0,0,0,16.237-9.653Z" transform="translate(114.801 90)" fill="#ccc"/><path d="M983.462,635.2H682.891a1.737,1.737,0,1,1,0-3.475H983.462a1.737,1.737,0,0,1,0,3.475Z" transform="translate(114.801 90)" fill="#ccc"/><path d="M983.462,646.493H682.891a1.737,1.737,0,0,1,0-3.475H983.462a1.737,1.737,0,0,1,0,3.475Z" transform="translate(114.801 90)" fill="#ccc"/><path d="M983.462,657.787H682.891a1.737,1.737,0,1,1,0-3.475H983.462a1.737,1.737,0,0,1,0,3.475Z" transform="translate(114.801 90)" fill="#ccc"/></g><g transform="translate(280.5 -145)"><path d="M585.249,606.1a21.283,21.283,0,0,1,0-42.566H901.384a18.505,18.505,0,0,0-16.237-9.653H256.755a30.936,30.936,0,0,0,0,61.872H885.147a18.5,18.5,0,0,0,16.237-9.653Z" transform="translate(114.801 90)" fill="#6c63ff"/><path d="M901.8,575.26H601.233a1.737,1.737,0,1,1,0-3.475H901.8a1.737,1.737,0,1,1,0,3.475Z" transform="translate(114.801 90)" fill="#ccc"/><path d="M901.8,586.553H601.233a1.737,1.737,0,1,1,0-3.475H901.8a1.737,1.737,0,0,1,0,3.475Z" transform="translate(114.801 90)" fill="#ccc"/><path d="M901.8,597.846H601.233a1.737,1.737,0,1,1,0-3.475H901.8a1.737,1.737,0,0,1,0,3.475Z" transform="translate(114.801 90)" fill="#ccc"/></g><g transform="translate(362.158 -144.932)"><path d="M503.591,544.159a21.283,21.283,0,0,1,0-42.566H819.726a18.506,18.506,0,0,0-16.237-9.653H175.1a30.936,30.936,0,0,0,0,61.872H803.489a18.505,18.505,0,0,0,16.237-9.653Z" transform="translate(114.801 90)" fill="#ccc"/><path d="M820.146,513.32H519.575a1.737,1.737,0,1,1,0-3.475H820.146a1.737,1.737,0,1,1,0,3.475Z" transform="translate(114.801 90)" fill="#ccc"/><path d="M820.146,524.613H519.575a1.737,1.737,0,1,1,0-3.475H820.146a1.737,1.737,0,0,1,0,3.475Z" transform="translate(114.801 90)" fill="#ccc"/><path d="M820.146,535.906H519.575a1.737,1.737,0,1,1,0-3.475H820.146a1.737,1.737,0,0,1,0,3.475Z" transform="translate(114.801 90)" fill="#ccc"/></g><path d="M503.591,544.159a21.283,21.283,0,0,1,0-42.566H819.726a18.506,18.506,0,0,0-16.237-9.653H175.1a30.936,30.936,0,0,0,0,61.872H803.489a18.505,18.505,0,0,0,16.237-9.653Z" transform="translate(476.959 -116.803)" fill="#6c63ff"/><path d="M820.146,513.32H519.575a1.737,1.737,0,1,1,0-3.475H820.146a1.737,1.737,0,1,1,0,3.475Z" transform="translate(476.959 -116.803)" fill="#ccc"/><path d="M820.146,524.613H519.575a1.737,1.737,0,1,1,0-3.475H820.146a1.737,1.737,0,0,1,0,3.475Z" transform="translate(476.959 -116.803)" fill="#ccc"/><path d="M820.146,535.906H519.575a1.737,1.737,0,1,1,0-3.475H820.146a1.737,1.737,0,0,1,0,3.475Z" transform="translate(476.959 -116.803)" fill="#ccc"/><path d="M156.928,287.77,151.2,299.746l-48.917-16.394,8.453-17.675Z" transform="translate(417 214.625)" fill="#ffb8b8"/><path d="M358.53,543.805h26.834v16.12H343.643v-1.233A14.887,14.887,0,0,1,358.53,543.805Z" transform="matrix(0.431, -0.902, 0.902, 0.431, -85.122, 611.196)" fill="#2f2e41"/><path d="M168.459,394.715l-13.267-.448-.559-51.644,15.553.918Z" transform="translate(417 214.625)" fill="#ffb8b8"/><path d="M355.835,636.313H382.67v16.12H340.949V651.2a14.887,14.887,0,0,1,14.887-14.887Z" transform="translate(227.442 -43.214) rotate(1.933)" fill="#2f2e41"/><path d="M401.324,424.579s-40.605-10.287-59.013,4.873l-10.287,29.777L290.879,517.7l59.554,35.732,10.828-27.07-25.987-12.994,31.4-27.07-5.414,142.93,20.573,3.248S427.311,455.981,401.324,424.579Z" transform="translate(205.5 -31.376)" fill="#2f2e41"/><path d="M339.721,433.856l.495-.88c5.217-9.275,4.372-24.378,2.744-35.414-1.363-9.244-1.322-25.535-1.048-37.573a17.891,17.891,0,0,1,14.261-17.221c12.353-2.571,27.517-3.115,35.457-3.211l.007.541-.007-.541a8.245,8.245,0,0,1,8.275,8.043c.242,12.964.167,36.6-3.051,49.289-4.775,18.825,2.692,31.618,2.768,31.745l.45.753Z" transform="translate(205.5 -31.376)" fill="#6c63ff"/><path d="M318.834,485.774a10.025,10.025,0,0,0,3.811-14.892l22.916-98.818H328.235l-20.224,96.871a10.079,10.079,0,0,0,10.823,16.84Z" transform="translate(205.5 -31.376)" fill="#ffb8b8"/><path d="M458.171,388.5l-38.242-36.175L409.593,366.8l25.84,22.739-33.887,26.91c-.245-.017-.489-.037-.738-.037a10.853,10.853,0,1,0,10.746,12.3l.107.107Z" transform="translate(205.5 -31.376)" fill="#ffb8b8"/><path d="M353.74,344.038s-23.881-3.917-26.047,14.491-3.248,18.408-3.248,18.408,17.325-3.248,21.656,1.083S353.74,344.038,353.74,344.038Z" transform="translate(205.5 -31.376)" fill="#6c63ff"/><path d="M389.413,341.2s19.49-3.248,28.153,5.414,12.994,10.828,12.994,10.828-19.49,10.828-11.911,20.573c0,0-20.573-9.745-23.822-6.5S389.413,341.2,389.413,341.2Z" transform="translate(205.5 -31.376)" fill="#6c63ff"/><path d="M372.318,278.339c-6.148-4.91-7.763-14.386-4.2-21.4s11.632-11.238,19.493-10.923,15.27,4.829,19.824,11.245c6.4,9.012,7.741,21.538,16.248,28.594,7.684,6.373,18.692,6.19,28.661,5.683,3.361-.171,6.83-.369,9.846-1.862s5.479-4.642,5.091-7.985c2.5,3.965,1.052,9.524-2.309,12.8s-8.145,4.642-12.8,5.188a47.569,47.569,0,0,1-43.151-18.933c-3.469-4.785-6.146-10.358-10.906-13.862s-12.7-3.748-15.619,1.39c-1.445,2.541-1.3,5.728-2.632,8.332s-5.645,4.008-6.925,1.379" transform="translate(205.5 -31.376)" fill="#2f2e41"/><circle cx="30" cy="30" r="30" transform="translate(546.879 239.181)" fill="#2f2e41"/><circle cx="24.561" cy="24.561" r="24.561" transform="translate(552.137 252.407)" fill="#ffb8b8"/><path d="M348.8,290.305c3.338.73,2.246,6.33,4.883,8.5,2.379,1.959,5.806-.056,8.8-.785,3.781-.921,7.738.428,11.229,2.148s6.857,3.854,10.664,4.655,8.322-.1,10.457-3.355c2.041-3.111,1.29-7.306-.307-10.667a24.77,24.77,0,0,0-44.442-.616" transform="translate(205.5 -31.376)" fill="#2f2e41"/><path d="M1091.849,653a1.136,1.136,0,0,1-1.229,1H212.729a1.021,1.021,0,1,1,0-2h877.89a1.136,1.136,0,0,1,1.229,1Z" transform="translate(253.5 -31.376)" fill="#ccc"/></g></svg>